<svg xmlns="http://www.w3.org/2000/svg" viewBox="0 0 64 64">
  <path d="M20 18 Q24 10 32 14 Q40 10 44 18 Q38 22 32 22 Q26 22 20 18 Z" fill="#7FB069"/>
  <path d="M32 14 L32 22" stroke="#5C7548" stroke-width="1.5" stroke-linecap="round"/>
  <path d="M16 24 Q32 18 48 24 L32 58 Z" fill="#F04A5A"/>
  <circle cx="24" cy="32" r="1.5" fill="#FFE08A"/>
  <circle cx="32" cy="28" r="1.5" fill="#FFE08A"/>
  <circle cx="40" cy="32" r="1.5" fill="#FFE08A"/>
  <circle cx="28" cy="40" r="1.5" fill="#FFE08A"/>
  <circle cx="36" cy="40" r="1.5" fill="#FFE08A"/>
  <circle cx="32" cy="48" r="1.5" fill="#FFE08A"/>
  <ellipse cx="26" cy="36" rx="3" ry="2" fill="#F89AA3" opacity="0.7"/>
  <ellipse cx="38" cy="36" rx="3" ry="2" fill="#F89AA3" opacity="0.7"/>
  <circle cx="27" cy="33" r="1.6" fill="#5C4A3A"/>
  <circle cx="37" cy="33" r="1.6" fill="#5C4A3A"/>
  <path d="M29 40 Q32 43 35 40" stroke="#5C4A3A" stroke-width="1.5" stroke-linecap="round" fill="none"/>
</svg>
